<svg width="26" height="26" viewBox="0 0 26 26" fill="none" xmlns="http://www.w3.org/2000/svg">
<path fill-rule="evenodd" clip-rule="evenodd" d="M13.9328 1.67513L12.7156 0.496773L11.5285 1.64594C11.5078 1.66507 11.4875 1.68471 11.4677 1.70481L0.743577 12.0867C0.049168 12.7589 0.031201 13.8668 0.703447 14.5612C1.37569 15.2556 2.48359 15.2736 3.178 14.6014L10.9649 7.06302L10.9649 23.7556C10.9649 24.7221 11.7484 25.5056 12.7149 25.5056C13.6814 25.5056 14.4649 24.7221 14.4649 23.7556L14.4649 7.06161L22.2532 14.6014C22.9476 15.2736 24.0555 15.2556 24.7277 14.5612C25.4 13.8668 25.382 12.7589 24.6876 12.0867L13.9328 1.67513Z" fill="#393C47"/>
</svg>
